<svg width="144" height="50" viewBox="0 0 144 50" fill="none" xmlns="http://www.w3.org/2000/svg">
<path fill-rule="evenodd" clip-rule="evenodd" d="M81.6003 15.0683C81.6003 6.75956 88.3097 0 96.5618 0H96.5657C101.554 0 106.202 2.49541 108.989 6.67172L109.223 7.01908L102.375 11.6745L102.129 11.3032C100.876 9.43464 98.7983 8.3167 96.5618 8.3167C92.866 8.3167 89.8563 11.3471 89.8563 15.0683C89.8563 18.7894 92.866 21.8159 96.5618 21.8159C98.2629 21.8159 99.8768 21.1651 101.106 20.0271H94.8566V12.6168H111.293C111.293 12.6168 111.396 13.1318 111.42 13.3035L111.422 13.3207V13.3208C111.435 13.4722 111.523 14.4985 111.523 15.0683C111.523 23.373 104.814 30.1326 96.5618 30.1326C88.3097 30.1326 81.6003 23.377 81.6003 15.0683ZM114.077 15.0683C114.077 6.75956 120.786 0 129.038 0H129.042C134.031 0 138.678 2.49541 141.466 6.67172L141.7 7.01908L134.852 11.6745L134.606 11.3032C133.353 9.43464 131.275 8.3167 129.038 8.3167C125.343 8.3167 122.333 11.3471 122.333 15.0683C122.333 18.7894 125.343 21.8159 129.038 21.8159C130.74 21.8159 132.354 21.1651 133.583 20.0271H127.333V12.6168H143.77C143.77 12.6168 143.873 13.1318 143.897 13.3035L143.898 13.3203L143.898 13.3207L143.899 13.3224C143.912 13.4794 144 14.5005 144 15.0683C144 23.373 137.291 30.1326 129.038 30.1326C120.786 30.1326 114.077 23.377 114.077 15.0683ZM26.5405 0.670766H1.75271V8.69999H11.9597L0 29.4618H25.9735V20.5542H14.8425L26.5405 0.670766ZM57.3914 0.670766H79.8158V8.69999H65.3659V11.6146H77.9481V18.5179H65.3659V21.4326H79.8158V29.4618H57.3914V0.670766ZM53.89 0.670766H45.0154V17.5557C45.0154 19.564 43.3935 21.197 41.3989 21.197C39.4043 21.197 37.7825 19.564 37.7825 17.5557V0.670766H28.9039V17.5557C28.9039 24.4909 34.507 30.1365 41.3989 30.1365C48.2908 30.1365 53.89 24.4949 53.89 17.5557V0.670766ZM25.2993 41.0245H28.6977C31.2316 41.0245 33.1429 42.7014 33.1429 45.4484C33.1429 48.1953 31.2316 49.8722 28.6977 49.8722H25.2993V41.0245ZM27.6508 43.0288V47.8679H28.4399C29.8596 47.8679 30.7399 46.9177 30.7399 45.4484C30.7399 43.9791 29.8596 43.0288 28.4399 43.0288H27.6508ZM42.6797 40.8009C42.652 40.8009 42.6203 40.8249 42.6044 40.8688L38.3257 49.8722H40.6257L40.9508 49.1176H44.258L44.595 49.8722H47.0258L42.759 40.8688C42.7392 40.8249 42.7115 40.8009 42.6797 40.8009ZM41.7003 47.3489L42.5766 45.2927L43.4808 47.3489H41.7003ZM53.1286 41.0245H55.4801V47.8799H59.2115V49.8722H53.1286V41.0245ZM76.8894 41.0245H73.2848V43.0168H74.5379V49.8722H76.8894V41.0245ZM84.2412 43.1047C84.2412 41.8829 85.3158 40.9207 87.021 40.9207V40.9167C88.7261 40.9167 89.7849 41.8789 89.7849 43.1007C89.7849 43.7914 89.4637 44.3264 88.9839 44.6898C89.9673 45.133 90.6136 45.9514 90.6136 47.0973C90.6136 48.6744 89.3487 50 87.021 50C84.6933 50 83.4164 48.6704 83.4164 47.0973C83.4164 45.9554 84.0469 45.1369 85.0422 44.7057C84.5624 44.3264 84.2412 43.7954 84.2412 43.1047ZM86.1922 43.3642C86.1922 43.7555 86.4896 44.1308 87.021 44.1308C87.5365 44.1308 87.8339 43.7515 87.8339 43.3642C87.8339 42.9769 87.5523 42.6096 87.021 42.6096C86.4896 42.6096 86.1922 42.9729 86.1922 43.3642ZM85.6529 46.9137C85.6529 47.6443 86.1565 48.1634 87.021 48.1634C87.8854 48.1634 88.3772 47.6004 88.3772 46.9137C88.3772 46.2269 87.8854 45.68 87.021 45.68C86.1565 45.68 85.6529 46.2269 85.6529 46.9137ZM100.043 40.8967C97.9378 40.8967 96.3833 42.3141 96.3833 44.1747C96.3833 45.7239 97.5967 47.2491 99.6191 47.2491H99.6193C99.6866 47.2491 99.754 47.2491 99.8213 47.2451L97.8466 49.8722H100.277L102.732 46.5663C103.275 45.8397 103.648 45.0571 103.648 44.1228C103.648 42.3141 102.109 40.8967 100.043 40.8967ZM100.055 45.5402C99.2027 45.5402 98.7229 44.8894 98.7229 44.1747C98.7229 43.46 99.2146 42.8212 100.055 42.8212C100.896 42.8212 101.384 43.472 101.384 44.1747C101.384 44.9174 100.88 45.5402 100.055 45.5402ZM109.644 45.4484C109.644 42.7813 111.829 40.9207 114.359 40.9207C116.892 40.9207 119.077 42.7773 119.077 45.4484C119.077 48.1195 116.888 49.992 114.359 49.992C111.829 49.992 109.644 48.1155 109.644 45.4484ZM112.047 45.4444C112.047 46.8378 112.887 47.9318 114.359 47.9318C115.83 47.9318 116.67 46.8378 116.67 45.4444C116.67 44.0509 115.83 42.9729 114.359 42.9729C112.887 42.9729 112.047 44.0509 112.047 45.4444Z" fill="#192A67"/>
</svg>
