<svg width="416" height="410" viewBox="0 0 416 410" fill="none" xmlns="http://www.w3.org/2000/svg">
<g clip-path="url(#clip0_0_389)">
<path d="M177.783 204.014C178.678 204.263 179.382 204.718 179.895 205.378C180.409 206.023 180.665 206.845 180.665 207.842C180.665 209.177 180.159 210.203 179.147 210.922C178.15 211.641 176.691 212 174.769 212H167.421V196.6H174.329C176.089 196.6 177.446 196.952 178.399 197.656C179.367 198.36 179.851 199.335 179.851 200.582C179.851 201.389 179.661 202.085 179.279 202.672C178.913 203.259 178.414 203.706 177.783 204.014ZM169.621 198.382V203.31H174.131C175.261 203.31 176.126 203.105 176.727 202.694C177.343 202.269 177.651 201.653 177.651 200.846C177.651 200.039 177.343 199.431 176.727 199.02C176.126 198.595 175.261 198.382 174.131 198.382H169.621ZM174.681 210.218C175.928 210.218 176.867 210.013 177.497 209.602C178.128 209.191 178.443 208.546 178.443 207.666C178.443 205.95 177.189 205.092 174.681 205.092H169.621V210.218H174.681ZM194.368 212L191.046 207.27C190.635 207.299 190.312 207.314 190.078 207.314H186.272V212H184.072V196.6H190.078C192.072 196.6 193.642 197.077 194.786 198.03C195.93 198.983 196.502 200.296 196.502 201.968C196.502 203.156 196.208 204.168 195.622 205.004C195.035 205.84 194.199 206.449 193.114 206.83L196.766 212H194.368ZM190.012 205.444C191.405 205.444 192.468 205.143 193.202 204.542C193.935 203.941 194.302 203.083 194.302 201.968C194.302 200.853 193.935 200.003 193.202 199.416C192.468 198.815 191.405 198.514 190.012 198.514H186.272V205.444H190.012ZM209.868 208.15H201.684L199.99 212H197.724L204.698 196.6H206.876L213.872 212H211.562L209.868 208.15ZM209.098 206.39L205.776 198.844L202.454 206.39H209.098ZM229.413 196.6V212H227.609L218.369 200.516V212H216.169V196.6H217.973L227.213 208.084V196.6H229.413ZM234.023 196.6H240.513C242.141 196.6 243.586 196.923 244.847 197.568C246.108 198.213 247.084 199.123 247.773 200.296C248.477 201.455 248.829 202.789 248.829 204.3C248.829 205.811 248.477 207.153 247.773 208.326C247.084 209.485 246.108 210.387 244.847 211.032C243.586 211.677 242.141 212 240.513 212H234.023V196.6ZM240.381 210.086C241.628 210.086 242.72 209.844 243.659 209.36C244.612 208.876 245.346 208.201 245.859 207.336C246.372 206.456 246.629 205.444 246.629 204.3C246.629 203.156 246.372 202.151 245.859 201.286C245.346 200.406 244.612 199.724 243.659 199.24C242.72 198.756 241.628 198.514 240.381 198.514H236.223V210.086H240.381Z" fill="white"/>
<path d="M208 274C245.555 274 276 243.332 276 205.5C276 167.669 245.555 137 208 137C170.445 137 140 167.669 140 205.5C140 243.332 170.445 274 208 274Z" stroke="white" stroke-width="2" stroke-miterlimit="10"/>
<path d="M207.999 358.527C292.741 358.527 361.438 289.795 361.438 205.01C361.438 120.225 292.741 51.4934 207.999 51.4934C123.257 51.4934 54.5605 120.225 54.5605 205.01C54.5605 289.795 123.257 358.527 207.999 358.527Z" stroke="black" stroke-width="0.05" stroke-miterlimit="10"/>
<path d="M208 344C284.768 344 347 281.768 347 205C347 128.232 284.768 66 208 66C131.232 66 69 128.232 69 205C69 281.768 131.232 344 208 344Z" stroke="white" stroke-width="2" stroke-miterlimit="10"/>
<path d="M208 309C265.438 309 312 262.438 312 205C312 147.562 265.438 101 208 101C150.562 101 104 147.562 104 205C104 262.438 150.562 309 208 309Z" stroke="white" stroke-width="2" stroke-miterlimit="10"/>
<path d="M207.999 383.597C210.296 383.597 212.158 381.734 212.158 379.436C212.158 377.138 210.296 375.275 207.999 375.275C205.702 375.275 203.84 377.138 203.84 379.436C203.84 381.734 205.702 383.597 207.999 383.597Z" fill="white"/>
<path d="M267.622 373.081C269.919 373.081 271.781 371.218 271.781 368.92C271.781 366.622 269.919 364.759 267.622 364.759C265.325 364.759 263.463 366.622 263.463 368.92C263.463 371.218 265.325 373.081 267.622 373.081Z" fill="white"/>
<path d="M320.073 342.784C322.37 342.784 324.232 340.921 324.232 338.623C324.232 336.324 322.37 334.461 320.073 334.461C317.776 334.461 315.914 336.324 315.914 338.623C315.914 340.921 317.776 342.784 320.073 342.784Z" fill="white"/>
<path d="M358.98 296.395C361.277 296.395 363.139 294.532 363.139 292.233C363.139 289.935 361.277 288.072 358.98 288.072C356.682 288.072 354.82 289.935 354.82 292.233C354.82 294.532 356.682 296.395 358.98 296.395Z" fill="white"/>
<path d="M379.694 239.449C381.991 239.449 383.854 237.585 383.854 235.287C383.854 232.989 381.991 231.126 379.694 231.126C377.397 231.126 375.535 232.989 375.535 235.287C375.535 237.585 377.397 239.449 379.694 239.449Z" fill="white"/>
<path d="M379.694 178.874C381.991 178.874 383.854 177.011 383.854 174.713C383.854 172.415 381.991 170.552 379.694 170.552C377.397 170.552 375.535 172.415 375.535 174.713C375.535 177.011 377.397 178.874 379.694 178.874Z" fill="white"/>
<path d="M358.98 121.948C361.277 121.948 363.139 120.085 363.139 117.787C363.139 115.489 361.277 113.626 358.98 113.626C356.682 113.626 354.82 115.489 354.82 117.787C354.82 120.085 356.682 121.948 358.98 121.948Z" fill="white"/>
<path d="M320.073 75.5386C322.37 75.5386 324.232 73.6756 324.232 71.3774C324.232 69.0791 322.37 67.2161 320.073 67.2161C317.776 67.2161 315.914 69.0791 315.914 71.3774C315.914 73.6756 317.776 75.5386 320.073 75.5386Z" fill="white"/>
<path d="M267.622 45.2412C269.919 45.2412 271.781 43.3782 271.781 41.0799C271.781 38.7817 269.919 36.9186 267.622 36.9186C265.325 36.9186 263.463 38.7817 263.463 41.0799C263.463 43.3782 265.325 45.2412 267.622 45.2412Z" fill="white"/>
<path d="M207.999 34.7253C210.296 34.7253 212.158 32.8622 212.158 30.564C212.158 28.2658 210.296 26.4027 207.999 26.4027C205.702 26.4027 203.84 28.2658 203.84 30.564C203.84 32.8622 205.702 34.7253 207.999 34.7253Z" fill="white"/>
<path d="M148.358 45.2412C150.655 45.2412 152.518 43.3782 152.518 41.0799C152.518 38.7817 150.655 36.9186 148.358 36.9186C146.061 36.9186 144.199 38.7817 144.199 41.0799C144.199 43.3782 146.061 45.2412 148.358 45.2412Z" fill="white"/>
<path d="M95.9268 75.5386C98.2238 75.5386 100.086 73.6756 100.086 71.3774C100.086 69.0791 98.2238 67.2161 95.9268 67.2161C93.6297 67.2161 91.7676 69.0791 91.7676 71.3774C91.7676 73.6756 93.6297 75.5386 95.9268 75.5386Z" fill="white"/>
<path d="M56.999 121.948C59.2961 121.948 61.1582 120.085 61.1582 117.787C61.1582 115.489 59.2961 113.626 56.999 113.626C54.702 113.626 52.8398 115.489 52.8398 117.787C52.8398 120.085 54.702 121.948 56.999 121.948Z" fill="white"/>
<path d="M36.3057 178.874C38.6027 178.874 40.4648 177.011 40.4648 174.713C40.4648 172.415 38.6027 170.552 36.3057 170.552C34.0086 170.552 32.1465 172.415 32.1465 174.713C32.1465 177.011 34.0086 178.874 36.3057 178.874Z" fill="white"/>
<path d="M36.3057 239.449C38.6027 239.449 40.4648 237.585 40.4648 235.287C40.4648 232.989 38.6027 231.126 36.3057 231.126C34.0086 231.126 32.1465 232.989 32.1465 235.287C32.1465 237.585 34.0086 239.449 36.3057 239.449Z" fill="white"/>
<path d="M56.999 296.395C59.2961 296.395 61.1582 294.532 61.1582 292.233C61.1582 289.935 59.2961 288.072 56.999 288.072C54.702 288.072 52.8398 289.935 52.8398 292.233C52.8398 294.532 54.702 296.395 56.999 296.395Z" fill="white"/>
<path d="M95.9268 342.784C98.2238 342.784 100.086 340.921 100.086 338.623C100.086 336.324 98.2238 334.461 95.9268 334.461C93.6297 334.461 91.7676 336.324 91.7676 338.623C91.7676 340.921 93.6297 342.784 95.9268 342.784Z" fill="white"/>
<path d="M148.358 373.081C150.655 373.081 152.518 371.218 152.518 368.92C152.518 366.622 150.655 364.759 148.358 364.759C146.061 364.759 144.199 366.622 144.199 368.92C144.199 371.218 146.061 373.081 148.358 373.081Z" fill="white"/>
<path d="M207.999 383.597C210.296 383.597 212.158 381.734 212.158 379.436C212.158 377.138 210.296 375.275 207.999 375.275C205.702 375.275 203.84 377.138 203.84 379.436C203.84 381.734 205.702 383.597 207.999 383.597Z" fill="white"/>
<path d="M243.384 410C245.681 410 247.543 408.137 247.543 405.839C247.543 403.541 245.681 401.677 243.384 401.677C241.087 401.677 239.225 403.541 239.225 405.839C239.225 408.137 241.087 410 243.384 410Z" fill="white"/>
<path d="M309.909 385.77C312.206 385.77 314.068 383.907 314.068 381.609C314.068 379.311 312.206 377.448 309.909 377.448C307.612 377.448 305.75 379.311 305.75 381.609C305.75 383.907 307.612 385.77 309.909 385.77Z" fill="white"/>
<path d="M364.144 340.263C366.441 340.263 368.303 338.399 368.303 336.101C368.303 333.803 366.441 331.94 364.144 331.94C361.847 331.94 359.984 333.803 359.984 336.101C359.984 338.399 361.847 340.263 364.144 340.263Z" fill="white"/>
<path d="M399.526 278.909C401.823 278.909 403.686 277.046 403.686 274.748C403.686 272.449 401.823 270.586 399.526 270.586C397.229 270.586 395.367 272.449 395.367 274.748C395.367 277.046 397.229 278.909 399.526 278.909Z" fill="white"/>
<path d="M411.821 209.172C414.118 209.172 415.98 207.309 415.98 205.01C415.98 202.712 414.118 200.849 411.821 200.849C409.524 200.849 407.662 202.712 407.662 205.01C407.662 207.309 409.524 209.172 411.821 209.172Z" fill="white"/>
<path d="M399.526 139.414C401.823 139.414 403.686 137.55 403.686 135.252C403.686 132.954 401.823 131.091 399.526 131.091C397.229 131.091 395.367 132.954 395.367 135.252C395.367 137.55 397.229 139.414 399.526 139.414Z" fill="white"/>
<path d="M364.144 78.0806C366.441 78.0806 368.303 76.2176 368.303 73.9194C368.303 71.6211 366.441 69.7581 364.144 69.7581C361.847 69.7581 359.984 71.6211 359.984 73.9194C359.984 76.2176 361.847 78.0806 364.144 78.0806Z" fill="white"/>
<path d="M309.909 32.5524C312.206 32.5524 314.068 30.6893 314.068 28.3911C314.068 26.0929 312.206 24.2298 309.909 24.2298C307.612 24.2298 305.75 26.0929 305.75 28.3911C305.75 30.6893 307.612 32.5524 309.909 32.5524Z" fill="white"/>
<path d="M243.384 8.32258C245.681 8.32258 247.543 6.45951 247.543 4.16129C247.543 1.86307 245.681 0 243.384 0C241.087 0 239.225 1.86307 239.225 4.16129C239.225 6.45951 241.087 8.32258 243.384 8.32258Z" fill="white"/>
<path d="M172.597 8.32258C174.894 8.32258 176.756 6.45951 176.756 4.16129C176.756 1.86307 174.894 0 172.597 0C170.3 0 168.438 1.86307 168.438 4.16129C168.438 6.45951 170.3 8.32258 172.597 8.32258Z" fill="white"/>
<path d="M106.089 32.5524C108.386 32.5524 110.248 30.6893 110.248 28.3911C110.248 26.0929 108.386 24.2298 106.089 24.2298C103.792 24.2298 101.93 26.0929 101.93 28.3911C101.93 30.6893 103.792 32.5524 106.089 32.5524Z" fill="white"/>
<path d="M51.8564 78.0806C54.1535 78.0806 56.0156 76.2176 56.0156 73.9194C56.0156 71.6211 54.1535 69.7581 51.8564 69.7581C49.5594 69.7581 47.6973 71.6211 47.6973 73.9194C47.6973 76.2176 49.5594 78.0806 51.8564 78.0806Z" fill="white"/>
<path d="M16.4521 139.414C18.7492 139.414 20.6113 137.55 20.6113 135.252C20.6113 132.954 18.7492 131.091 16.4521 131.091C14.1551 131.091 12.293 132.954 12.293 135.252C12.293 137.55 14.1551 139.414 16.4521 139.414Z" fill="white"/>
<path d="M4.15918 209.172C6.45623 209.172 8.31836 207.309 8.31836 205.01C8.31836 202.712 6.45623 200.849 4.15918 200.849C1.86213 200.849 0 202.712 0 205.01C0 207.309 1.86213 209.172 4.15918 209.172Z" fill="white"/>
<path d="M16.4521 278.909C18.7492 278.909 20.6113 277.046 20.6113 274.748C20.6113 272.449 18.7492 270.586 16.4521 270.586C14.1551 270.586 12.293 272.449 12.293 274.748C12.293 277.046 14.1551 278.909 16.4521 278.909Z" fill="white"/>
<path d="M51.8564 340.263C54.1535 340.263 56.0156 338.399 56.0156 336.101C56.0156 333.803 54.1535 331.94 51.8564 331.94C49.5594 331.94 47.6973 333.803 47.6973 336.101C47.6973 338.399 49.5594 340.263 51.8564 340.263Z" fill="white"/>
<path d="M106.089 385.77C108.386 385.77 110.248 383.907 110.248 381.609C110.248 379.311 108.386 377.448 106.089 377.448C103.792 377.448 101.93 379.311 101.93 381.609C101.93 383.907 103.792 385.77 106.089 385.77Z" fill="white"/>
<path d="M172.597 410C174.894 410 176.756 408.137 176.756 405.839C176.756 403.541 174.894 401.677 172.597 401.677C170.3 401.677 168.438 403.541 168.438 405.839C168.438 408.137 170.3 410 172.597 410Z" fill="white"/>
</g>
<defs>
<clipPath id="clip0_0_389">
<rect width="416" height="410" fill="white"/>
</clipPath>
</defs>
</svg>
