<svg width="95" height="44" viewBox="0 0 95 44" fill="none" xmlns="http://www.w3.org/2000/svg">
<g clip-path="url(#clip0_1376_187)">
<path d="M13.9528 44H1.06509V26.0867H13.6274V30.335H5.55142V32.8938H13.1669V37.0138H5.55142V39.7263H13.9528V44Z" fill="white"/>
<path d="M35.6261 43.9737H31.9224L29.0691 35.4016L26.3084 43.9737H22.6268L16.6246 26.0867H21.5911L23.6617 32.3818C24.0547 33.7385 24.2833 35.197 24.5136 36.5273L27.4817 26.0867H30.6337L33.6937 36.5291C33.9239 35.1733 34.2233 33.7402 34.5911 32.2554L36.5235 26.0885H41.4939L35.6261 43.9737Z" fill="white"/>
<path d="M54.6063 41.0566H47.4041L46.3464 44H41.5143L48.7393 26.0867H53.3403L60.5425 44H55.6648L54.6063 41.0566ZM51.0166 31.1024L48.9459 36.8101H53.0645L51.0166 31.1024Z" fill="white"/>
<path d="M78.3369 26.394L71.8019 34.8607C74.0573 37.6241 76.6568 40.8485 78.8886 43.6892V43.9965H73.2518L68.6468 38.0377V44H64.089V26.0867H68.6468V31.97C70.0275 30.0759 71.5229 27.9781 72.8801 26.0867H78.3338L78.3369 26.394Z" fill="white"/>
<path d="M94.3349 44H81.4472V26.0867H94.0104V30.335H85.9351V32.8938H93.5506V37.0138H85.9351V39.7263H94.3333L94.3349 44Z" fill="white"/>
<path d="M32.7553 0.0319843L24.5114 9.24385L27.6032 12.6986L35.8471 3.48674L32.7553 0.0319843Z" fill="white"/>
<path d="M59.5531 3.45407L67.797 12.6659L70.8887 9.21118L62.6448 -0.00068479L59.5531 3.45407Z" fill="white"/>
<path d="M41.5403 8.83021C45.5995 7.0041 50.1416 7.05364 54.1682 8.96793C58.1948 10.8822 61.3764 14.5046 63.0139 19.039C63.0776 19.2147 63.1326 19.3947 63.1908 19.5729H68.0519C67.8464 18.7365 67.599 17.9135 67.3109 17.1081C65.7489 12.7779 63.0731 9.06245 59.6217 6.43138C56.1703 3.80032 52.0982 2.37179 47.9203 2.32639C43.7424 2.281 39.6463 3.62078 36.1497 6.17635C32.6531 8.73193 29.9132 12.3886 28.2762 16.684C27.9192 17.6254 27.6171 18.5915 27.3717 19.5764H32.2352C33.0252 17.1563 34.2619 14.9489 35.865 13.0976C37.4681 11.2462 39.4017 9.79229 41.5403 8.83021Z" fill="white"/>
</g>
<defs>
<clipPath id="clip0_1376_187">
<rect width="93.6" height="44" fill="white" transform="translate(0.900002)"/>
</clipPath>
</defs>
</svg>
