<svg width="95" height="44" viewBox="0 0 95 44" fill="none" xmlns="http://www.w3.org/2000/svg">
<g clip-path="url(#clip0_1376_162)">
<path d="M13.9526 44H1.06494V26.0867H13.6273V30.3349H5.55127V32.8937H13.1668V37.0138H5.55127V39.7262H13.9526V44Z" fill="black"/>
<path d="M35.626 43.9736H31.9223L29.069 35.4016L26.3083 43.9736H22.6267L16.6245 26.0867H21.591L23.6617 32.3818C24.0546 33.7385 24.2832 35.197 24.5135 36.5273L27.4816 26.0867H30.6336L33.6936 36.5291C33.9239 35.1733 34.2233 33.7402 34.591 32.2553L36.5234 26.0884H41.4938L35.626 43.9736Z" fill="black"/>
<path d="M54.6062 41.0566H47.404L46.3463 44H41.5142L48.7391 26.0867H53.3402L60.5423 44H55.6647L54.6062 41.0566ZM51.0165 31.1024L48.9458 36.8101H53.0643L51.0165 31.1024Z" fill="black"/>
<path d="M78.3368 26.394L71.8018 34.8607C74.0572 37.6241 76.6567 40.8485 78.8885 43.6891V43.9965H73.2517L68.6467 38.0377V44H64.0889V26.0867H68.6467V31.97C70.0274 30.0759 71.5229 27.9781 72.88 26.0867H78.3337L78.3368 26.394Z" fill="black"/>
<path d="M94.3347 44H81.447V26.0867H94.0101V30.3349H85.9349V32.8937H93.5504V37.0138H85.9349V39.7262H94.3331L94.3347 44Z" fill="black"/>
<path d="M32.7551 0.0320301L24.5112 9.2439L27.603 12.6987L35.8469 3.48679L32.7551 0.0320301Z" fill="black"/>
<path d="M59.553 3.45403L67.7969 12.6659L70.8886 9.21113L62.6447 -0.000734381L59.553 3.45403Z" fill="black"/>
<path d="M41.5402 8.83025C45.5994 7.00414 50.1415 7.05368 54.1681 8.96797C58.1947 10.8823 61.3763 14.5047 63.0139 19.0391C63.0775 19.2147 63.1325 19.3947 63.1907 19.573H68.0518C67.8463 18.7365 67.5989 17.9136 67.3108 17.1081C65.7488 12.778 63.073 9.0625 59.6216 6.43143C56.1702 3.80036 52.0981 2.37183 47.9202 2.32643C43.7423 2.28104 39.6462 3.62082 36.1496 6.1764C32.653 8.73197 29.9131 12.3886 28.2761 16.684C27.9192 17.6254 27.617 18.5916 27.3716 19.5765H32.2351C33.0251 17.1564 34.2618 14.949 35.8649 13.0976C37.468 11.2463 39.4016 9.79233 41.5402 8.83025Z" fill="black"/>
</g>
<defs>
<clipPath id="clip0_1376_162">
<rect width="93.6" height="44" fill="white" transform="translate(0.899902)"/>
</clipPath>
</defs>
</svg>
