<svg width="2197" height="834" viewBox="0 0 2197 834" fill="none" xmlns="http://www.w3.org/2000/svg">
<g opacity="0.1" clip-path="url(#clip0_0_162)">
<path d="M832.119 136.007L696.323 0L416.059 280.701L135.796 0L0 136.007L280.264 416.709L0 697.41L135.796 833.417L416.059 552.774L696.323 833.417L832.119 697.41L551.913 416.709L832.119 136.007Z" fill="black"/>
<path d="M2197 641.619H1565.4V834H2197V641.619Z" fill="black"/>
<path d="M1760.39 0.291016L1624.54 136.298L2061.15 573.586H2197V437.578L1760.39 0.291016Z" fill="black"/>
<path d="M1179.44 33.6953C968.263 33.6953 797.02 205.147 797.02 416.708C797.02 628.269 968.205 799.721 1179.44 799.721C1390.67 799.721 1561.85 628.269 1561.85 416.708C1561.85 205.147 1390.61 33.6953 1179.44 33.6953ZM1179.44 687.907L908.659 416.708L1179.44 145.509L1450.21 416.708L1179.44 687.907Z" fill="black"/>
</g>
<defs>
<clipPath id="clip0_0_162">
<rect width="2197" height="834" fill="white"/>
</clipPath>
</defs>
</svg>
