<svg width="1962" height="823" viewBox="0 0 1962 823" fill="none" xmlns="http://www.w3.org/2000/svg">
<path d="M743.112 121.493L621.842 0L371.556 250.746L121.27 0L0 121.493L250.286 372.24L0 622.986L121.27 744.48L371.556 493.785L621.842 744.48L743.112 622.986L492.878 372.24L743.112 121.493Z" fill="#5AEE74"/>
<path d="M1962 573.149H1397.96V745H1962V573.149Z" fill="#FF3B4A"/>
<path d="M1572.09 0.260193L1450.77 121.754L1840.68 512.376H1962V390.883L1572.09 0.260193Z" fill="#FF3B4A"/>
<path d="M1053.28 30.0997C864.693 30.0997 711.767 183.255 711.767 372.24C711.767 561.224 864.641 714.379 1053.28 714.379C1241.92 714.379 1394.79 561.224 1394.79 372.24C1394.79 183.255 1241.86 30.0997 1053.28 30.0997ZM1053.28 614.497L811.466 372.24L1053.28 129.982L1295.09 372.24L1053.28 614.497Z" fill="#8159FF"/>
</svg>
