<svg width="433" height="165" viewBox="0 0 433 165" fill="none" xmlns="http://www.w3.org/2000/svg">
<path d="M164 26.9079L137.236 0L81.9999 55.5344L26.7635 0L0 26.9079L55.2364 82.4424L0 137.977L26.7635 164.885L81.9999 109.362L137.236 164.885L164 137.977L108.775 82.4424L164 26.9079Z" fill="black"/>
<path d="M433 126.939H308.52V165H433V126.939Z" fill="black"/>
<path d="M346.951 0.0576172L320.176 26.9656L406.225 113.479H433V86.5713L346.951 0.0576172Z" fill="black"/>
<path d="M232.451 6.6665C190.832 6.6665 157.082 40.5869 157.082 82.4424C157.082 124.298 190.82 158.218 232.451 158.218C274.082 158.218 307.82 124.298 307.82 82.4424C307.82 40.5869 274.071 6.6665 232.451 6.6665ZM232.451 136.097L179.085 82.4424L232.451 28.788L285.818 82.4424L232.451 136.097Z" fill="black"/>
</svg>
